<?xml version="1.0" encoding="UTF-8" standalone="no"?>
<svg
   viewBox="0 0 395.94461 81.900673"
   data-background-color="#ffffff"
   preserveAspectRatio="xMidYMid meet"
   height="81.900673"
   width="395.94461"
   version="1.1"
   id="svg914"
   sodipodi:docname="logo.svg"
   inkscape:version="1.1.2 (0a00cf5339, 2022-02-04, custom)"
   xmlns:inkscape="http://www.inkscape.org/namespaces/inkscape"
   xmlns:sodipodi="http://sodipodi.sourceforge.net/DTD/sodipodi-0.dtd"
   xmlns="http://www.w3.org/2000/svg"
   xmlns:svg="http://www.w3.org/2000/svg">
  <defs
     id="defs918" />
  <sodipodi:namedview
     id="namedview916"
     pagecolor="#ffffff"
     bordercolor="#666666"
     borderopacity="1.0"
     inkscape:pageshadow="2"
     inkscape:pageopacity="0.0"
     inkscape:pagecheckerboard="0"
     showgrid="false"
     inkscape:snap-global="false"
     inkscape:zoom="1.1346854"
     inkscape:cx="193.44569"
     inkscape:cy="-59.047203"
     inkscape:window-width="1920"
     inkscape:window-height="1017"
     inkscape:window-x="-8"
     inkscape:window-y="-8"
     inkscape:window-maximized="1"
     inkscape:current-layer="g1840"
     fit-margin-top="0"
     fit-margin-left="0"
     fit-margin-right="0"
     fit-margin-bottom="0" />
  <svg
     viewBox="0 0 395.52 81.900663"
     height="81.900665"
     width="395.51999"
     version="1.1"
     id="svg909"
     transform="translate(-76.993775,-152.0547)">
    <g
       id="g905"
       transform="translate(228.3588,142.47951)">
      <g
         id="g1358"
         transform="translate(-31.394896,32.714841)" />
    </g>
    <defs
       id="defs907" />
  </svg>
  <g
     id="g1451"
     transform="translate(-156.76008,-215.61848)">
    <g
       id="g1389"
       transform="translate(196.9639,175.19435)">
      <g
         transform="matrix(0.75751091,0,0,0.75751091,95.909289,11.319122)"
         id="g890">
        <svg
           viewBox="0 0 395.52 78.23309"
           height="78.233093"
           width="395.51999"
           version="1.1"
           id="svg888">
          <g
             id="g886">
            <svg
               viewBox="0 0 395.52 78.23309"
               height="78.233093"
               width="395.51999"
               version="1.1"
               id="svg884">
              <g
                 id="g882">
                <svg
                   viewBox="0 0 395.52 78.23309"
                   height="78.233093"
                   width="395.51999"
                   version="1.1"
                   id="svg880">
                  <g
                     id="g878">
                    <svg
                       width="395.51999"
                       viewBox="2.4989796 -35.450001 181.74103 35.950001"
                       height="78.233093"
                       data-palette-color="#152232"
                       version="1.1"
                       id="svg876">
                      <g
                         class="undefined-text-0"
                         data-fill-palette-color="primary"
                         id="text-0" />
                    </svg>
                  </g>
                </svg>
              </g>
            </svg>
          </g>
        </svg>
      </g>
      <g
         id="g901"
         transform="scale(0.75751091)">
        <svg
           viewBox="0 0 108.14214 108.11813"
           height="108.11813"
           width="108.14214"
           version="1.1"
           id="svg899">
          <g
             id="g897">
            <svg
               version="1.1"
               x="0"
               y="0"
               viewBox="13.992001 14 72.015991 72"
               enable-background="new 0 0 100 100"
               xml:space="preserve"
               height="108.11813"
               width="108.14214"
               class="icon-icon-0"
               data-fill-palette-color="accent"
               id="icon-0">
                                    <g
   fill="#5ebc67"
   data-fill-palette-color="accent"
   id="g894">
                                        
                                    </g>
                                </svg>
          </g>
        </svg>
      </g>
    </g>
    <g
       id="g1840">
      <g
         id="g1844"
         transform="translate(-34.023225,35.99557)">
        <path
           d="m 344.8318,249.46265 v 0 c -4.89046,0 -7.33569,-0.54949 -7.33569,-1.64847 v 0 l -1.73089,-33.05178 -10.05565,33.46389 c -0.2198,0.65939 -2.08806,0.98908 -5.60479,0.98908 -3.51673,0 -5.33005,-0.30221 -5.43995,-0.90665 v 0 l -10.38534,-33.87602 -1.15393,32.88694 c -0.055,0.82423 -1.09898,1.38471 -3.13209,1.68142 -2.03311,0.30773 -3.72004,0.46159 -5.0608,0.46159 -1.35174,0 -2.65953,-0.0824 -3.92335,-0.24728 v 0 c -2.63755,-0.38464 -3.92885,-1.0715 -3.8739,-2.06058 v 0 l 1.89574,-53.57521 c 0,-1.31877 3.35188,-1.97816 10.05565,-1.97816 v 0 c 1.97816,0 4.39592,0.15386 7.25326,0.46157 2.85734,0.29673 4.45086,0.88468 4.78056,1.76386 v 0 l 9.23142,25.96337 8.07749,-26.0458 c 0.49454,-1.42867 4.28602,-2.14301 11.37443,-2.14301 v 0 c 2.03311,0 4.46735,0.15386 7.30271,0.46157 2.82438,0.29673 4.23656,0.82973 4.23656,1.59902 v 0 l 2.39028,54.06975 c 0,0.60444 -1.0715,1.04403 -3.21451,1.31878 -2.14301,0.27474 -4.03875,0.41212 -5.68721,0.41212 z m 41.57436,0.74181 c -7.71483,0 -14.00649,-2.52767 -18.87496,-7.58297 -4.85749,-5.05529 -7.28623,-12.43494 -7.28623,-22.13891 0,-9.69299 2.45622,-17.03966 7.36865,-22.04002 4.92343,-5.00035 11.27003,-7.50052 19.03981,-7.50052 7.78076,0 14.06143,2.45621 18.84198,7.36865 4.78056,4.92342 7.17084,12.369 7.17084,22.33674 0,9.97872 -2.44523,17.39683 -7.33568,22.25431 -4.89046,4.86848 -11.1986,7.30272 -18.92441,7.30272 z m 0.0494,-43.43713 c -2.63755,0 -4.85199,1.20887 -6.64333,3.62663 -1.78034,2.41775 -2.67051,5.8081 -2.67051,10.17104 0,4.37394 0.8517,7.72582 2.55512,10.05566 1.70342,2.34082 3.93984,3.51123 6.70927,3.51123 2.78041,0 5.03332,-1.1814 6.75871,-3.5442 1.73639,-2.36281 2.60458,-5.74217 2.60458,-10.13808 0,-4.39591 -0.89566,-7.77527 -2.687,-10.13808 -1.78035,-2.3628 -3.98929,-3.5442 -6.62684,-3.5442 z m 44.01409,40.88199 -14.42409,-54.89398 c 0,-0.27474 1.19239,-0.5385 3.57717,-0.79126 2.39578,-0.24178 4.36295,-0.36267 5.90152,-0.36267 v 0 c 6.09933,0 9.28637,0.79676 9.56111,2.39028 v 0 l 7.08841,36.26629 6.6763,-36.26629 c 0.32969,-1.59352 3.73653,-2.39028 10.2205,-2.39028 v 0 c 1.59352,0 3.59915,0.10991 6.01691,0.3297 2.41775,0.21979 3.62663,0.46706 3.62663,0.74181 v 0 l -14.58894,54.56428 c -0.2198,0.87919 -1.84079,1.45615 -4.86298,1.73089 v 0 c -4.67066,0.49455 -8.91822,0.58796 -12.74266,0.28024 -3.81346,-0.29672 -5.83008,-0.82972 -6.04988,-1.59901 z m 43.00853,-12.44593 h 5.68721 v -29.34273 h -5.85206 c -0.93413,0 -1.59352,-1.18139 -1.97816,-3.5442 v 0 c -0.16485,-1.15392 -0.24727,-2.33533 -0.24727,-3.5442 0,-1.20888 0.0824,-2.39028 0.24727,-3.54421 v 0 c 0.38464,-2.3628 1.04403,-3.5442 1.97816,-3.5442 v 0 h 27.69426 c 0.93413,0 1.56605,1.1814 1.89574,3.5442 v 0 c 0.2198,1.15393 0.32969,2.33533 0.32969,3.54421 0,1.20887 -0.10989,2.39028 -0.32969,3.5442 v 0 c -0.32969,2.36281 -0.96161,3.5442 -1.89574,3.5442 v 0 h -5.52237 v 29.34273 h 5.76964 c 0.93413,0 1.59352,1.1814 1.97816,3.5442 v 0 c 0.2198,1.15393 0.3297,2.33533 0.3297,3.54421 0,1.20888 -0.1099,2.39028 -0.3297,3.54421 v 0 c -0.38464,2.3628 -1.04403,3.5442 -1.97816,3.5442 v 0 h -27.77663 c -0.93413,0 -1.56605,-1.1814 -1.89574,-3.5442 v 0 c -0.2198,-1.15393 -0.32969,-2.33533 -0.32969,-3.54421 0,-1.20887 0.10989,-2.39027 0.32969,-3.5442 v 0 c 0.32969,-2.3628 0.96161,-3.5442 1.89574,-3.5442 z m 51.76189,-20.60585 h 10.63262 c 1.04403,0 1.56604,1.92321 1.56604,5.76964 v 0 c 0,1.15392 -0.12089,2.51116 -0.36266,4.07171 -0.25277,1.57154 -0.70884,2.35732 -1.36823,2.35732 v 0 h -10.46777 v 8.24234 h 15.1659 c 0.93414,0 1.56605,1.20888 1.89574,3.62663 v 0 c 0.16485,1.04403 0.24727,2.154 0.24727,3.32991 0,1.18689 -0.16484,2.71447 -0.49454,4.58274 -0.32969,1.86826 -0.87918,2.80239 -1.64847,2.80239 v 0 h -28.1888 c -2.08806,0 -3.13209,-0.85171 -3.13209,-2.55512 v 0 -52.99825 c 0,-1.42867 0.63192,-2.143 1.89574,-2.143 v 0 h 29.50758 c 1.15392,0 1.73089,2.42874 1.73089,7.28622 0,4.86848 -0.57697,7.30272 -1.73089,7.30272 v 0 h -15.24833 z m 26.62276,14.67136 v 0 c 1.04403,0.82424 2.84086,1.95069 5.39049,3.37936 2.56062,1.42867 5.00584,2.14301 7.33568,2.14301 2.34082,0 3.51123,-0.90666 3.51123,-2.71997 v 0 c 0,-0.82423 -0.32969,-1.55506 -0.98908,-2.19246 -0.65938,-0.62642 -1.86826,-1.35175 -3.62663,-2.17598 -1.75836,-0.82423 -3.07714,-1.47263 -3.95632,-1.94519 -0.87918,-0.46157 -2.04959,-1.23086 -3.51124,-2.30786 -1.45065,-1.06601 -2.56062,-2.17598 -3.3299,-3.3299 v 0 c -2.19796,-3.13209 -3.29694,-7.11589 -3.29694,-11.9514 0,-4.8355 1.79683,-8.91821 5.39049,-12.24811 3.60465,-3.31892 8.31927,-4.97837 14.14386,-4.97837 v 0 c 3.95632,0 7.61042,0.4231 10.96231,1.26932 3.35188,0.8572 5.08278,1.97266 5.19267,3.34639 v 0 0.49454 0 c 0,1.92321 -0.60443,4.35195 -1.81331,7.28622 -1.20888,2.94527 -2.06059,4.58274 -2.55513,4.91244 v 0 c -3.51673,-1.81332 -6.6653,-2.71997 -9.44572,-2.71997 -2.76942,0 -4.15414,0.98908 -4.15414,2.96724 v 0 c 0,1.20887 1.01656,2.28038 3.04967,3.21451 v 0 c 0.43959,0.2198 1.0715,0.52202 1.89574,0.90666 0.82423,0.38464 1.76935,0.83522 2.83536,1.35174 1.077,0.52751 2.23093,1.1869 3.46178,1.97816 1.24185,0.80226 2.57711,1.86277 4.00578,3.18155 v 0 c 2.91229,2.74744 4.36844,6.37407 4.36844,10.87988 v 0 c 0,5.87954 -1.62099,10.68757 -4.86298,14.4241 -3.24199,3.73653 -8.24234,5.65974 -15.00106,5.76964 v 0 c -3.29693,0 -6.28066,-0.27475 -8.95118,-0.82424 -2.65953,-0.54949 -4.97837,-1.62099 -6.95653,-3.21451 -1.97816,-1.59352 -2.96724,-3.51673 -2.96724,-5.76964 0,-2.2529 0.41211,-4.49482 1.23635,-6.72575 0.82423,-2.21993 1.70341,-3.68707 2.63755,-4.40141 z"
           style="fill:#152232"
           id="path1592" />
        <path
           d="m 231.73364,179.62291 c -22.59093,0 -40.95033,18.3594 -40.95033,40.95033 0,22.45444 18.0864,40.67733 40.47258,40.95034 h 0.1365 0.34125 39.99596 c 1.29676,0 1.29676,-1.84277 0,-1.84277 h -27.91447 c 16.72024,-5.11879 28.86998,-20.67992 28.86998,-39.10757 0,-22.59093 -18.3594,-40.95033 -40.95147,-40.95033 z m 0,1.84277 c 21.63656,0 39.10871,17.47214 39.10871,39.10756 0,21.63543 -17.47215,39.10757 -39.10871,39.10757 -21.63542,0 -39.10757,-17.47214 -39.10757,-39.10757 0,-21.63542 17.47215,-39.10756 39.10757,-39.10756 z m 0,4.16328 c -19.31491,0 -34.94428,15.62938 -34.94428,34.94428 0,19.31491 15.62937,34.94429 34.94428,34.94429 19.31491,0 34.94542,-15.62824 34.94542,-34.94429 0,-19.3149 -15.62937,-34.94428 -34.94542,-34.94428 z m 0,1.84277 c 18.29229,0 33.10266,14.81037 33.10266,33.10151 0,18.29115 -14.81037,33.10152 -33.10266,33.10152 -18.29115,0 -33.10152,-14.81037 -33.10152,-33.10152 0,-18.29114 14.81151,-33.10151 33.10152,-33.10151 z m 0,3.20777 c -5.66479,0 -10.23758,4.57279 -10.23758,10.23758 0,5.6648 4.57279,10.23759 10.23758,10.23759 5.6648,0 10.23872,-4.57279 10.23872,-10.23759 0,-5.66479 -4.57279,-10.23758 -10.23872,-10.23758 z m 0,1.77452 c 4.71043,0 8.46307,3.75378 8.46307,8.46306 0,4.64104 -3.75378,8.46307 -8.46307,8.46307 -4.70929,0 -8.46307,-3.82203 -8.46307,-8.46307 0,-4.70928 3.75492,-8.46306 8.46307,-8.46306 z m -19.65616,17.88164 c -5.66479,0 -10.23758,4.57279 -10.23758,10.23758 0,5.6648 4.57279,10.23759 10.23758,10.23759 5.6648,0 10.23758,-4.57279 10.23758,-10.23759 0,-5.66479 -4.57278,-10.23758 -10.23758,-10.23758 z m 39.31232,0 c -5.66366,0 -10.23758,4.57279 -10.23758,10.23758 0,5.6648 4.57392,10.23759 10.23758,10.23759 5.6648,0 10.23758,-4.57279 10.23758,-10.23759 0,-5.66479 -4.57165,-10.23758 -10.23758,-10.23758 z m -39.31232,1.77452 c 4.64104,0 8.46307,3.75378 8.46307,8.46306 0,4.70929 -3.82203,8.46307 -8.46307,8.46307 -4.70929,0 -8.46307,-3.75492 -8.46307,-8.46307 0,-4.70928 3.75378,-8.46306 8.46307,-8.46306 z m 39.31232,0 c 4.71043,0 8.46307,3.75378 8.46307,8.46306 0,4.70929 -3.75378,8.46307 -8.46307,8.46307 -4.64104,0 -8.46193,-3.75492 -8.46193,-8.46307 0,-4.70928 3.82089,-8.46306 8.46193,-8.46306 z m -19.65616,17.88164 c -5.66479,0 -10.23758,4.57279 -10.23758,10.23758 0,5.66366 4.57279,10.23759 10.23758,10.23759 5.6648,0 10.23872,-4.57393 10.23872,-10.23759 0,-5.66479 -4.57279,-10.23758 -10.23872,-10.23758 z m 0,1.77452 c 4.71043,0 8.46307,3.82203 8.46307,8.46306 0,4.70929 -3.75378,8.46193 -8.46307,8.46193 -4.70929,0 -8.46307,-3.75378 -8.46307,-8.46193 0,-4.64103 3.75492,-8.46306 8.46307,-8.46306 z"
           style="fill:#5ebc67"
           id="path1647" />
      </g>
    </g>
  </g>
</svg>
