<svg xmlns="http://www.w3.org/2000/svg" xmlns:xlink="http://www.w3.org/1999/xlink" width="1080" zoomAndPan="magnify" viewBox="0 0 810 809.999993" height="1080" preserveAspectRatio="xMidYMid meet" version="1.0"><defs><g/><clipPath id="f7c2c59b8d"><path d="M 87.789062 316.523438 L 379.375 316.523438 L 379.375 497.261719 L 87.789062 497.261719 Z M 87.789062 316.523438 " clip-rule="nonzero"/></clipPath><clipPath id="1e6a380c06"><path d="M 48.222656 316.523438 L 780.730469 316.523438 L 780.730469 497.25 L 48.222656 497.25 Z M 48.222656 316.523438 " clip-rule="nonzero"/></clipPath><clipPath id="77b15c68f9"><path d="M 249.597656 344.910156 L 369.777344 344.910156 L 369.777344 465.089844 L 249.597656 465.089844 Z M 249.597656 344.910156 " clip-rule="nonzero"/></clipPath><clipPath id="dcf1a0c847"><path d="M 309.6875 344.910156 C 276.5 344.910156 249.597656 371.8125 249.597656 405 C 249.597656 438.1875 276.5 465.089844 309.6875 465.089844 C 342.875 465.089844 369.777344 438.1875 369.777344 405 C 369.777344 371.8125 342.875 344.910156 309.6875 344.910156 Z M 309.6875 344.910156 " clip-rule="nonzero"/></clipPath><clipPath id="81ad7059a2"><path d="M 263.582031 358.191406 L 357.332031 358.191406 L 357.332031 451.941406 L 263.582031 451.941406 Z M 263.582031 358.191406 " clip-rule="nonzero"/></clipPath><clipPath id="a909e847b2"><path d="M 262.59375 358.191406 L 357.09375 358.191406 L 357.09375 452.691406 L 262.59375 452.691406 Z M 262.59375 358.191406 " clip-rule="nonzero"/></clipPath></defs><g clip-path="url(#f7c2c59b8d)"><path fill="#f6f8ff" d="M 87.789062 316.523438 L 379.375 316.523438 L 379.375 497.261719 L 87.789062 497.261719 Z M 87.789062 316.523438 " fill-opacity="1" fill-rule="nonzero"/></g><g clip-path="url(#1e6a380c06)"><path stroke-linecap="butt" transform="matrix(0.75, 0, 0, 0.75, 48.221581, 316.522065)" fill="none" stroke-linejoin="miter" d="M 0.00143357 0.00183017 L 976.678566 0.00183017 L 976.678566 240.970592 L 0.00143357 240.970592 Z M 0.00143357 0.00183017 " stroke="#f6f8ff" stroke-width="12" stroke-opacity="1" stroke-miterlimit="4"/></g><g fill="#363636" fill-opacity="1"><g transform="translate(91.317413, 456.375993)"><g><path d="M 11.257812 0 L 41.679688 0 L 41.679688 -54 L 62.214844 -25.25 L 82.140625 -25.25 L 102.527344 -53.847656 L 102.527344 0 L 132.949219 0 L 132.949219 -106.480469 L 108 -106.480469 L 72.101562 -55.828125 L 36.355469 -106.480469 L 11.257812 -106.480469 Z M 11.257812 0 "/></g></g></g><g fill="#363636" fill-opacity="1"><g transform="translate(247.078305, 456.375993)"><g><path d="M 63.128906 2.28125 C 97.050781 2.28125 121.082031 -20.6875 121.082031 -53.242188 C 121.082031 -85.792969 97.050781 -108.761719 63.128906 -108.761719 C 29.207031 -108.761719 5.171875 -85.792969 5.171875 -53.242188 C 5.171875 -20.6875 29.207031 2.28125 63.128906 2.28125 Z M 36.355469 -53.242188 C 36.355469 -69.210938 47.460938 -80.316406 63.128906 -80.316406 C 78.949219 -80.316406 89.898438 -69.210938 89.898438 -53.242188 C 89.898438 -37.269531 78.949219 -26.164062 63.128906 -26.164062 C 47.460938 -26.164062 36.355469 -37.269531 36.355469 -53.242188 Z M 36.355469 -53.242188 "/></g></g></g><g fill="#f6f8ff" fill-opacity="1"><g transform="translate(389.126733, 456.376051)"><g><path d="M 40.765625 0 L 71.191406 0 L 111.195312 -106.480469 L 78.492188 -106.480469 L 66.019531 -71.34375 L 56.128906 -43.65625 L 46.242188 -71.34375 L 33.769531 -106.480469 L 0.761719 -106.480469 Z M 40.765625 0 "/></g></g></g><g fill="#f6f8ff" fill-opacity="1"><g transform="translate(501.079196, 456.376051)"><g><path d="M 11.257812 0 L 41.984375 0 L 41.984375 -106.480469 L 11.257812 -106.480469 Z M 11.257812 0 "/></g></g></g><g fill="#f6f8ff" fill-opacity="1"><g transform="translate(554.317451, 456.376051)"><g><path d="M 11.257812 0 L 85.945312 0 L 85.945312 -25.097656 L 41.679688 -25.097656 L 41.679688 -41.527344 L 80.164062 -41.527344 L 80.164062 -66.171875 L 41.679688 -66.171875 L 41.679688 -81.6875 L 84.273438 -81.6875 L 84.273438 -106.480469 L 11.257812 -106.480469 Z M 11.257812 0 "/></g></g></g><g fill="#f6f8ff" fill-opacity="1"><g transform="translate(647.104151, 456.376051)"><g><path d="M 49.4375 2.28125 C 75.90625 2.28125 91.574219 -10.191406 91.574219 -31.183594 C 91.574219 -48.828125 80.164062 -59.171875 54.304688 -64.953125 C 40.613281 -67.996094 35.59375 -71.34375 35.59375 -76.816406 C 35.59375 -81.988281 40.160156 -85.183594 47.308594 -85.183594 C 55.828125 -85.183594 60.695312 -80.773438 60.695312 -72.710938 L 89.597656 -72.710938 C 89.597656 -94.617188 72.863281 -108.761719 46.699219 -108.761719 C 21.601562 -108.761719 6.085938 -96.289062 6.085938 -76.210938 C 6.085938 -58.261719 17.796875 -47.15625 41.832031 -42.59375 C 54.761719 -40.007812 61 -36.050781 61 -29.964844 C 61 -24.644531 56.433594 -21.601562 48.980469 -21.601562 C 40.160156 -21.601562 34.988281 -26.316406 34.988281 -34.53125 L 5.324219 -34.53125 C 5.324219 -11.5625 21.753906 2.28125 49.4375 2.28125 Z M 49.4375 2.28125 "/></g></g></g><g clip-path="url(#77b15c68f9)"><g clip-path="url(#dcf1a0c847)"><path fill="#303339" d="M 249.597656 344.910156 L 369.777344 344.910156 L 369.777344 465.089844 L 249.597656 465.089844 Z M 249.597656 344.910156 " fill-opacity="1" fill-rule="nonzero"/></g></g><g clip-path="url(#81ad7059a2)"><path fill="#363636" d="M 357.191406 404.996094 C 357.191406 406.527344 357.117188 408.058594 356.964844 409.582031 C 356.816406 411.109375 356.589844 412.625 356.292969 414.125 C 355.992188 415.628906 355.621094 417.117188 355.175781 418.582031 C 354.730469 420.050781 354.214844 421.492188 353.628906 422.90625 C 353.042969 424.324219 352.386719 425.707031 351.664062 427.058594 C 350.941406 428.410156 350.15625 429.722656 349.304688 431 C 348.453125 432.273438 347.539062 433.503906 346.566406 434.6875 C 345.59375 435.871094 344.566406 437.007812 343.484375 438.089844 C 342.398438 439.175781 341.265625 440.203125 340.078125 441.175781 C 338.894531 442.148438 337.664062 443.058594 336.390625 443.910156 C 335.117188 444.761719 333.804688 445.550781 332.449219 446.273438 C 331.097656 446.996094 329.714844 447.652344 328.300781 448.238281 C 326.882812 448.824219 325.441406 449.339844 323.972656 449.785156 C 322.507812 450.230469 321.023438 450.601562 319.519531 450.902344 C 318.015625 451.199219 316.5 451.425781 314.976562 451.574219 C 313.449219 451.726562 311.921875 451.800781 310.386719 451.800781 C 308.855469 451.800781 307.324219 451.726562 305.800781 451.574219 C 304.273438 451.425781 302.761719 451.199219 301.257812 450.902344 C 299.753906 450.601562 298.269531 450.230469 296.800781 449.785156 C 295.335938 449.339844 293.894531 448.824219 292.476562 448.238281 C 291.058594 447.652344 289.675781 446.996094 288.324219 446.273438 C 286.972656 445.550781 285.660156 444.761719 284.386719 443.910156 C 283.109375 443.058594 281.878906 442.148438 280.695312 441.175781 C 279.511719 440.203125 278.375 439.175781 277.292969 438.089844 C 276.207031 437.007812 275.179688 435.871094 274.207031 434.6875 C 273.234375 433.503906 272.324219 432.273438 271.472656 431 C 270.621094 429.722656 269.832031 428.410156 269.109375 427.058594 C 268.386719 425.707031 267.734375 424.324219 267.148438 422.90625 C 266.558594 421.492188 266.042969 420.050781 265.597656 418.582031 C 265.152344 417.117188 264.78125 415.628906 264.484375 414.125 C 264.183594 412.625 263.960938 411.109375 263.808594 409.582031 C 263.660156 408.058594 263.582031 406.527344 263.582031 404.996094 C 263.582031 403.464844 263.660156 401.933594 263.808594 400.410156 C 263.960938 398.882812 264.183594 397.367188 264.484375 395.863281 C 264.78125 394.363281 265.152344 392.875 265.597656 391.410156 C 266.042969 389.941406 266.558594 388.5 267.148438 387.085938 C 267.734375 385.667969 268.386719 384.285156 269.109375 382.933594 C 269.832031 381.582031 270.621094 380.265625 271.472656 378.992188 C 272.324219 377.71875 273.234375 376.488281 274.207031 375.304688 C 275.179688 374.117188 276.207031 372.984375 277.292969 371.902344 C 278.375 370.816406 279.511719 369.789062 280.695312 368.816406 C 281.878906 367.84375 283.109375 366.929688 284.386719 366.078125 C 285.660156 365.226562 286.972656 364.441406 288.324219 363.71875 C 289.675781 362.996094 291.058594 362.339844 292.476562 361.753906 C 293.894531 361.167969 295.335938 360.652344 296.800781 360.207031 C 298.269531 359.761719 299.753906 359.390625 301.257812 359.089844 C 302.761719 358.792969 304.273438 358.566406 305.800781 358.417969 C 307.324219 358.265625 308.855469 358.191406 310.386719 358.191406 C 311.921875 358.191406 313.449219 358.265625 314.976562 358.417969 C 316.5 358.566406 318.015625 358.792969 319.519531 359.089844 C 321.023438 359.390625 322.507812 359.761719 323.972656 360.207031 C 325.441406 360.652344 326.882812 361.167969 328.300781 361.753906 C 329.714844 362.339844 331.097656 362.996094 332.449219 363.71875 C 333.804688 364.441406 335.117188 365.226562 336.390625 366.078125 C 337.664062 366.929688 338.894531 367.84375 340.078125 368.816406 C 341.265625 369.789062 342.398438 370.816406 343.484375 371.902344 C 344.566406 372.984375 345.59375 374.117188 346.566406 375.304688 C 347.539062 376.488281 348.453125 377.71875 349.304688 378.992188 C 350.15625 380.265625 350.941406 381.582031 351.664062 382.933594 C 352.386719 384.285156 353.042969 385.667969 353.628906 387.085938 C 354.214844 388.5 354.730469 389.941406 355.175781 391.410156 C 355.621094 392.875 355.992188 394.363281 356.292969 395.863281 C 356.589844 397.367188 356.816406 398.882812 356.964844 400.410156 C 357.117188 401.933594 357.191406 403.464844 357.191406 404.996094 Z M 357.191406 404.996094 " fill-opacity="1" fill-rule="nonzero"/></g><g clip-path="url(#a909e847b2)"><path fill="#f6f8ff" d="M 330.882812 375.140625 C 335.449219 381.050781 334.355469 389.539062 328.449219 394.101562 C 322.539062 398.664062 314.050781 397.574219 309.488281 391.664062 C 304.925781 385.757812 306.015625 377.269531 311.925781 372.703125 C 317.832031 368.140625 326.320312 369.234375 330.882812 375.140625 Z M 341.804688 397.863281 C 347.820312 402.285156 349.113281 410.742188 344.695312 416.761719 C 340.273438 422.777344 331.8125 424.070312 325.796875 419.648438 C 319.78125 415.226562 318.488281 406.769531 322.910156 400.753906 C 327.328125 394.734375 335.789062 393.441406 341.804688 397.863281 Z M 326.671875 433.714844 C 324.238281 440.773438 316.542969 444.523438 309.484375 442.089844 C 302.429688 439.660156 298.679688 431.964844 301.113281 424.90625 C 303.542969 417.847656 311.238281 414.101562 318.296875 416.53125 C 325.351562 418.964844 329.101562 426.660156 326.671875 433.714844 Z M 274.902344 416.847656 C 274.882812 409.378906 280.914062 403.308594 288.378906 403.289062 C 295.847656 403.265625 301.917969 409.300781 301.9375 416.765625 C 301.960938 424.230469 295.925781 430.300781 288.460938 430.324219 C 280.996094 430.34375 274.925781 424.3125 274.902344 416.847656 Z M 309.867188 400.234375 C 312.777344 400.226562 315.144531 402.578125 315.15625 405.492188 C 315.164062 408.40625 312.808594 410.773438 309.898438 410.78125 C 306.984375 410.789062 304.617188 408.4375 304.609375 405.523438 C 304.601562 402.609375 306.953125 400.242188 309.867188 400.234375 Z M 279.683594 392.757812 C 277.363281 385.660156 281.238281 378.027344 288.335938 375.710938 C 295.429688 373.394531 303.0625 377.269531 305.382812 384.367188 C 307.699219 391.460938 303.824219 399.09375 296.726562 401.410156 C 289.628906 403.726562 282 399.855469 279.683594 392.757812 Z M 262.65625 405.648438 C 262.734375 431.730469 283.941406 452.8125 310.023438 452.734375 C 336.105469 452.65625 357.183594 431.449219 357.109375 405.367188 C 357.03125 379.285156 335.824219 358.203125 309.742188 358.28125 C 283.660156 358.359375 262.578125 379.566406 262.65625 405.648438 " fill-opacity="1" fill-rule="nonzero"/></g></svg>