<?xml version="1.0" standalone="no"?>
<!DOCTYPE svg PUBLIC "-//W3C//DTD SVG 20010904//EN"
 "http://www.w3.org/TR/2001/REC-SVG-20010904/DTD/svg10.dtd">
<svg version="1.0" xmlns="http://www.w3.org/2000/svg"
 width="490.000000pt" height="121.000000pt" viewBox="0 0 490.000000 121.000000"
 preserveAspectRatio="xMidYMid meet">

<g transform="translate(0.000000,121.000000) scale(0.100000,-0.100000)"
fill="#000000" stroke="none">
<path d="M10 610 l0 -600 2440 0 2440 0 0 600 0 600 -2440 0 -2440 0 0 -600z
m270 0 l0 -570 -120 0 -120 0 0 570 0 570 120 0 120 0 0 -570z m4590 0 l0
-570 -1325 0 -1325 0 0 570 0 570 1325 0 1325 0 0 -570z m-2998 390 c124 -38
222 -134 263 -258 27 -85 18 -209 -21 -292 -79 -165 -251 -253 -432 -221 -127
23 -226 99 -289 223 -38 74 -45 216 -15 301 42 117 137 208 258 247 77 25 157
25 236 0z m-1212 -175 c63 -91 117 -165 120 -165 4 0 59 74 123 165 l117 165
85 0 85 0 0 -355 0 -355 -105 0 -105 0 0 177 0 176 -65 -91 -66 -92 -68 0 -68
0 -64 91 -64 91 -3 -176 -2 -176 -100 0 -100 0 0 355 0 355 83 0 82 -1 115
-164z"/>
<path d="M4210 991 c-69 -21 -130 -72 -149 -124 -18 -47 -13 -126 10 -175 28
-57 85 -93 192 -122 129 -35 159 -58 142 -110 -7 -22 -63 -41 -97 -33 -31 8
-68 43 -68 65 0 16 -10 18 -101 18 l-102 0 7 -42 c16 -105 106 -182 228 -196
131 -15 238 14 293 79 36 43 46 74 46 134 0 120 -60 178 -238 226 -43 11 -88
27 -100 35 -31 19 -38 51 -18 75 43 47 140 27 152 -31 l6 -30 93 0 c89 0 94 1
94 21 0 86 -72 177 -161 203 -54 17 -185 20 -229 7z"/>
<path d="M2308 943 c10 -26 69 -186 132 -356 l115 -307 103 2 104 3 129 344
c71 189 129 348 129 353 0 5 -48 7 -107 6 l-106 -3 -70 -195 c-38 -107 -72
-198 -76 -202 -3 -4 -38 84 -77 195 l-71 202 -112 3 -111 3 18 -48z"/>
<path d="M3110 635 l0 -355 100 0 100 0 0 355 0 355 -100 0 -100 0 0 -355z"/>
<path d="M3460 635 l0 -355 250 0 250 0 0 85 0 85 -151 0 -150 0 3 53 3 52
128 3 127 3 0 79 0 80 -130 0 -130 0 0 50 0 49 143 3 142 3 3 83 3 82 -246 0
-245 0 0 -355z"/>
<path d="M1668 917 c-140 -53 -218 -159 -218 -298 0 -116 61 -218 161 -274 49
-27 62 -30 149 -30 87 0 100 3 149 30 178 98 215 344 75 489 -77 80 -222 118
-316 83z m226 -98 c14 -17 26 -41 26 -54 0 -13 -12 -37 -26 -54 -52 -62 -154
-28 -154 52 0 82 101 119 154 56z m-205 -14 c32 -16 41 -33 41 -75 0 -42 -9
-59 -41 -75 -40 -21 -63 -19 -98 11 -25 20 -31 34 -31 64 0 30 6 44 31 64 35
30 58 32 98 11z m266 -127 c29 -13 55 -55 55 -88 0 -35 -53 -80 -93 -80 -66 0
-109 84 -71 138 27 39 67 50 109 30z m-170 -58 c0 -20 -6 -26 -27 -28 -24 -3
-28 0 -28 21 0 30 9 39 35 35 14 -2 20 -10 20 -28z m-111 -12 c40 -35 43 -78
11 -116 -23 -27 -34 -32 -70 -32 -35 0 -48 5 -64 26 -66 84 43 192 123 122z
m158 -69 c31 -17 50 -71 37 -108 -32 -91 -169 -66 -169 30 0 64 75 109 132 78z"/>
</g>
</svg>
